<?xml version="1.0" standalone="no"?>
<!DOCTYPE svg PUBLIC "-//W3C//DTD SVG 20010904//EN"
 "http://www.w3.org/TR/2001/REC-SVG-20010904/DTD/svg10.dtd">
<svg version="1.0" xmlns="http://www.w3.org/2000/svg"
 width="500.000000pt" height="500.000000pt" viewBox="0 0 500.000000 500.000000"
 preserveAspectRatio="xMidYMid meet">
<metadata>
Created by potrace 1.14, written by Peter Selinger 2001-2017
</metadata>
<g transform="translate(0.000000,500.000000) scale(0.100000,-0.100000)"
fill="#000000" stroke="none">
<path d="M0 2500 l0 -2500 2500 0 2500 0 0 2500 0 2500 -2500 0 -2500 0 0
-2500z m3631 1399 c-25 -11 -52 -18 -60 -17 -9 2 7 11 34 20 67 23 80 21 26
-3z m-2016 -9 c150 -15 236 -33 395 -86 136 -45 342 -145 433 -211 27 -19 52
-32 55 -29 8 9 -35 52 -95 93 l-53 36 6 71 c4 39 8 72 9 74 2 2 36 -10 76 -27
41 -17 77 -31 82 -31 11 0 177 -111 252 -169 79 -60 222 -188 310 -278 l72
-72 84 102 c46 56 83 105 82 108 -1 4 5 13 15 21 15 12 16 11 3 -4 -19 -26 -8
-22 15 4 10 12 13 18 7 14 -33 -19 -7 17 55 76 120 115 240 190 379 237 86 29
228 45 310 35 l68 -8 -100 -7 c-55 -4 -122 -15 -150 -24 -27 -9 -56 -18 -62
-20 -9 -3 -4 -30 20 -96 l34 -92 69 3 c174 10 316 -15 449 -80 210 -102 338
-271 407 -537 70 -269 23 -467 -152 -644 -163 -165 -371 -239 -635 -226 -124
6 -141 10 -148 38 -4 16 0 19 25 19 22 0 29 4 25 14 -3 8 -11 33 -18 56 -10
33 -20 44 -48 56 -33 13 -38 20 -59 92 -23 77 -24 77 -85 112 -120 69 -274
197 -598 499 -297 278 -499 442 -684 556 -211 131 -422 218 -640 266 -153 33
-412 38 -570 11 -195 -34 -365 -101 -518 -203 -82 -56 -219 -196 -284 -290
-49 -72 -133 -228 -148 -277 -4 -13 -9 -21 -11 -19 -7 6 38 121 76 197 88 174
238 344 390 443 176 113 415 187 650 200 30 2 64 4 75 5 11 1 70 -3 130 -8z
m202 -605 c75 -23 240 -111 230 -121 -3 -3 -36 3 -74 14 -37 11 -92 25 -120
32 -33 7 -53 17 -53 26 0 7 -16 20 -35 28 -19 8 -35 22 -35 30 0 20 -5 21 87
-9z m843 -472 c0 -6 -130 -235 -155 -271 -15 -22 -25 -29 -28 -20 -4 10 -9 8
-20 -7 -8 -11 -24 -31 -36 -45 -47 -57 -19 20 75 207 l97 191 34 -25 c18 -14
33 -27 33 -30z m230 -213 c81 -65 141 -202 159 -367 l10 -88 -95 -190 c-137
-278 -260 -466 -403 -618 -86 -91 -175 -156 -301 -221 -239 -122 -470 -175
-766 -176 -220 0 -389 36 -577 123 l-89 41 5 35 c3 20 13 106 23 192 l17 155
121 -61 c129 -65 287 -121 426 -151 126 -27 357 -25 465 4 108 29 265 108 364
183 86 65 203 184 261 266 l34 48 -60 -56 c-88 -82 -159 -133 -258 -183 -175
-89 -326 -126 -541 -132 l-150 -4 155 53 c306 106 451 179 635 322 166 129
364 369 350 424 -11 46 -20 42 -70 -26 -111 -154 -312 -322 -466 -392 -123
-55 -275 -93 -369 -90 -22 1 -6 6 42 14 207 35 393 128 577 288 170 149 387
443 442 600 7 20 15 37 17 37 2 0 21 -14 42 -30z m1884 -290 c-38 -71 -110
-156 -173 -208 -44 -36 -56 -41 -60 -29 -4 12 -10 14 -21 7 -22 -14 -40 -12
-40 4 0 8 10 18 23 22 69 21 223 149 268 222 32 50 33 38 3 -18z"/>
<path d="M3474 3598 l-19 -23 23 19 c21 18 27 26 19 26 -2 0 -12 -10 -23 -22z"/>
<path d="M3414 3548 l-29 -33 33 29 c17 17 32 31 32 33 0 8 -8 1 -36 -29z"/>
<path d="M3736 3535 c-118 -48 -260 -157 -377 -290 -43 -49 -79 -95 -79 -102
0 -23 149 -181 238 -252 101 -82 184 -128 297 -167 68 -23 97 -27 196 -27 112
-1 119 0 182 31 117 58 170 152 171 302 0 67 -4 95 -22 134 -12 27 -22 50 -22
52 0 1 15 4 34 6 l33 3 -21 65 c-21 64 -21 64 -71 77 -27 7 -102 16 -166 19
-103 6 -124 4 -190 -16 -40 -12 -95 -33 -121 -46 -27 -13 -48 -23 -48 -22 0 2
7 59 15 127 8 69 13 126 12 127 -1 2 -29 -8 -61 -21z"/>
<path d="M4553 3278 c43 -24 104 -65 135 -92 l57 -48 -56 54 c-57 54 -144 111
-189 123 -14 3 10 -13 53 -37z"/>
</g>
</svg>
